{"title":"American High School[2009]DvDrip-LW","uid":4928791,"size":736196952,"categoryP":"video","categoryS":"movies","magnet":"?xt=urn:btih:c7505f4b10dc4c0442516cc3cad907829b0005fb&amp;dn=American+High+School%5B2009%5DDvDrip-LW&amp;tr=udp%3A%2F%2Ftracker.openbittorrent.com%3A80&amp;tr=udp%3A%2F%2Fopen.demonii.com%3A1337&amp;tr=udp%3A%2F%2Ftracker.coppersurfer.tk%3A6969&amp;tr=udp%3A%2F%2Fexodus.desync.com%3A6969","seeders":0,"leechers":0,"uploader":"XoLWoX","files":-1,"time":1243957216,"description":"-------------------------------------------------\nF I L E - I N F O\n-------------------------------------------------\nTITLE......[ American High School\nYEAR.......[ 2009\nGENRE......[ Comedy\nRUNTIME....[ 01:26:34\nSTORE DATE.[ 2008 (USA)\nIMDB RATE..[ 2.2/10 (200 Votes)\nIMDB URL...[ http://www.imdb.com/title/tt1087517/\n-------------------------------------------------\nFormat                           : AVI\nFormat/Info                      : Audio Video Interleave\nFile size                        : 702 MiB\nDuration                         : 1h 26mn\nOverall bit rate                 : 1 134 Kbps\nWriting application              : VirtualDubMod 1.5.10.2 (build 2540/release)\nWriting library                  : VirtualDubMod build 2540/release\nSOURCE                           : DVD\n-------------------------------------------------\nV I D E O\n-------------------------------------------------\nFormat                           : MPEG-4 Visual\nFormat profile                   : Streaming Video@L1\nFormat settings, BVOP            : Yes\nFormat settings, QPel            : No\nFormat settings, GMC             : No warppoints\nFormat settings, Matrix          : Default (H.263)\nCodec ID                         : XVID\nCodec ID/Hint                    : XviD\nDuration                         : 1h 26mn\nBit rate                         : 992 Kbps\nWidth                            : 640 pixels\nHeight                           : 352 pixels\nDisplay aspect ratio             : 16/9\nFrame rate                       : 23.976 fps\nResolution                       : 24 bits\nColorimetry                      : 4:2:0\nScan type                        : Progressive\nBits/(Pixel*Frame)               : 0.184\nStream size                      : 614 MiB (87%)\nWriting library                  : XviD 1.2.1 (UTC 2008-12-04)\n-------------------------------------------------\nA U D I O\n-------------------------------------------------\nFormat                           : MPEG Audio\nFormat version                   : Version 1\nFormat profile                   : Layer 3\nCodec ID                         : 55\nCodec ID/Hint                    : MP3\nDuration                         : 1h 26mn\nBit rate mode                    : Variable\nBit rate                         : 129 Kbps\nNominal bit rate                 : 139 Kbps\nChannel(s)                       : 2 channels\nSampling rate                    : 48.0 KHz\nResolution                       : 16 bits\nStream size                      : 80.0 MiB (11%)\nAlignment                        : Aligned on interleaves\nInterleave, duration             : 24 ms (0.58 video frame)\nInterleave, preload duration     : 499 ms\nWriting library                  : LAME3.92 \nEncoding settings                : ABR\n-------------------------------------------------\nP L O T\n-------------------------------------------------\nAs the school year winds down, the drama heats up \nwhen high school senior Gwen Adams (Jillian Murray) \nmust confront the pressures of married life with new \nhusband Holden (Talan Torriero) and contend with \nconniving rival Hilary's (Aubrey O'Day) scheme to \nbecome prom queen. Can Gwen get through the semester \nwithout sacrificing her marriage or her integrity? \nSean Patrick Cannon directs this romantic comedy that \nco-stars Martin Klebba. \n\nStarring: Martin Klebba, Aubrey O'Day\n\nDirector: Sean Patrick Cannon\n-------------------------------------------------","torrent":{"xt":"urn:btih:c7505f4b10dc4c0442516cc3cad907829b0005fb","amp;dn":"American+High+School%5B2009%5DDvDrip-LW","amp;tr":["udp%3A%2F%2Ftracker.openbittorrent.com%3A80","udp%3A%2F%2Fopen.demonii.com%3A1337","udp%3A%2F%2Ftracker.coppersurfer.tk%3A6969","udp%3A%2F%2Fexodus.desync.com%3A6969"],"infoHash":"c7505f4b10dc4c0442516cc3cad907829b0005fb","infoHashBuffer":{"type":"Buffer","data":[199,80,95,75,16,220,76,4,66,81,108,195,202,217,7,130,155,0,5,251]},"announce":[],"urlList":[]}}